<?xml version="1.0" encoding="iso-8859-1"?>
<!-- Generator: Adobe Illustrator 19.0.0, SVG Export Plug-In . SVG Version: 6.00 Build 0)  -->
<svg version="1.1" id="Capa_1" xmlns="http://www.w3.org/2000/svg" xmlns:xlink="http://www.w3.org/1999/xlink" x="0px" y="0px"
	 viewBox="0 0 511.734 511.734" style="enable-background:new 0 0 511.734 511.734;" xml:space="preserve">
<path style="fill:#E6E9ED;" d="M455.326,307.842L243.576,96.096H124.295L8.663,211.724c-6.215,6.23-6.223,16.405,0,22.629
	l260.072,260.079c6.216,6.216,16.413,6.216,22.629-0.016l163.962-163.962C461.541,324.24,461.541,314.057,455.326,307.842z"/>
<g style="opacity:0.2;">
	<path d="M243.576,96.096H124.295l-59.747,59.742l178.423,309.031c4.396,7.621,14.243,10.26,21.844,5.856l118.868-68.637
		l71.643-71.635c6.215-6.215,6.215-16.397,0-22.613L243.576,96.096z"/>
</g>
<g style="opacity:0.15;">
	<path d="M455.326,307.842L243.576,96.096H124.295L8.663,211.724c-6.215,6.23-6.223,16.405,0,22.629l260.072,260.079
		c6.216,6.216,16.413,6.216,22.629-0.016l163.962-163.962C461.541,324.24,461.541,314.057,455.326,307.842z"/>
</g>
<path style="fill:#E6E9ED;" d="M479.485,332.938L315.906,49.621H202.597L72.919,124.488c-7.613,4.404-10.252,14.234-5.856,21.855
	L250.967,464.87c4.396,7.621,14.239,10.26,21.845,5.856l200.817-115.94C481.234,350.383,483.873,340.544,479.485,332.938z"/>
<g style="opacity:0.2;">
	<path d="M479.485,332.938L315.906,49.621H202.597l-61.843,35.708l92.64,345.746c2.272,8.495,11.096,13.587,19.591,11.307
		l128.598-34.451l92.046-53.145C481.234,350.383,483.873,340.544,479.485,332.938z"/>
</g>
<g style="opacity:0.1;">
	<path d="M479.485,332.938L315.906,49.621H202.597L72.919,124.488c-7.613,4.404-10.252,14.234-5.856,21.855L250.967,464.87
		c4.396,7.621,14.239,10.26,21.845,5.856l200.817-115.94C481.234,350.383,483.873,340.544,479.485,332.938z"/>
</g>
<path style="fill:#E6E9ED;" d="M496.265,362.782L402.447,12.648h-82.363l-162.58,43.563c-8.496,2.28-13.587,11.096-11.307,19.592
	l95.193,355.272c2.272,8.495,11.096,13.587,19.591,11.307l223.978-60.017C493.446,380.086,498.537,371.277,496.265,362.782z"/>
<g style="opacity:0.05;">
	<path d="M496.265,362.782L402.447,12.648h-82.363l-162.58,43.563c-8.496,2.28-13.587,11.096-11.307,19.592l95.193,355.272
		c2.272,8.495,11.096,13.587,19.591,11.307l223.978-60.017C493.446,380.086,498.537,371.277,496.265,362.782z"/>
</g>
<g style="opacity:0.2;">
	<path d="M235.877,396.452c0,8.792,7.2,15.991,15.992,15.991h120.867l112.223-30.078c8.487-2.279,13.578-11.088,11.307-19.583
		L402.447,12.648h-82.363l-84.207,22.559V396.452z"/>
</g>
<path style="fill:#E6E9ED;" d="M507.736,396.452c0,8.792-7.199,15.991-15.992,15.991H259.865c-8.793,0-15.992-7.199-15.992-15.991
	V28.639c0-8.792,7.199-15.991,15.992-15.991h231.879c8.793,0,15.992,7.199,15.992,15.991V396.452z"/>
<g style="opacity:0.2;">
	<path d="M491.744,12.648h-7.996c8.793,0,15.992,7.199,15.992,15.991v367.813c0,8.792-7.199,15.991-15.992,15.991h7.996
		c8.793,0,15.992-7.199,15.992-15.991V28.639C507.736,19.847,500.537,12.648,491.744,12.648z"/>
</g>
<path style="fill:#FFFFFF;" d="M259.857,12.648h7.995c-8.792,0-15.991,7.199-15.991,15.991v367.813
	c0,8.792,7.199,15.991,15.991,15.991h-7.995c-8.793,0-15.992-7.199-15.992-15.991V28.639
	C243.865,19.847,251.064,12.648,259.857,12.648z"/>
<g>
	<path style="fill:#656D78;" d="M84.987,248.517c3.119,3.115,3.119,8.152,0,11.275c-3.116,3.115-8.156,3.115-11.271,0
		c-3.12-3.123-3.12-8.16,0-11.275C76.831,245.402,81.871,245.316,84.987,248.517z"/>
	<path style="fill:#656D78;" d="M489.019,361.736c3.678,3.686,3.678,9.604,0,13.273c-3.678,3.593-9.597,3.593-13.274,0
		c-3.679,3.593-9.597,3.593-13.274,0c-3.6-3.67-3.6-9.666,0-13.273l13.274-13.274L489.019,361.736z"/>
	<g>
		<path id="SVGCleanerId_0" style="fill:#656D78;" d="M418.891,192.547c11.838,11.915,11.838,31.187,0,43.095
			c-11.916,11.838-31.179,11.838-43.095,0c-11.916,11.838-31.18,11.838-43.017,0c-11.916-11.908-11.916-31.18,0-43.095
			l43.017-43.017L418.891,192.547z M407.538,224.288c5.685-5.599,5.685-14.789,0-20.388l-31.741-31.819L344.056,203.9
			c-5.599,5.599-5.599,14.789,0,20.388c5.435,5.442,14.945,5.521,20.466,0c3.115-3.115,7.199-4.639,11.275-4.639
			s8.238,1.523,11.354,4.639C392.593,229.808,402.103,229.73,407.538,224.288z"/>
	</g>
</g>
<g style="opacity:0.1;">
	<g>
		<path id="SVGCleanerId_0_1_" d="M418.891,192.547c11.838,11.915,11.838,31.187,0,43.095c-11.916,11.838-31.179,11.838-43.095,0
			c-11.916,11.838-31.18,11.838-43.017,0c-11.916-11.908-11.916-31.18,0-43.095l43.017-43.017L418.891,192.547z M407.538,224.288
			c5.685-5.599,5.685-14.789,0-20.388l-31.741-31.819L344.056,203.9c-5.599,5.599-5.599,14.789,0,20.388
			c5.435,5.442,14.945,5.521,20.466,0c3.115-3.115,7.199-4.639,11.275-4.639s8.238,1.523,11.354,4.639
			C392.593,229.808,402.103,229.73,407.538,224.288z"/>
	</g>
</g>
<g style="opacity:0.1;">
	<g>
		<path id="SVGCleanerId_0_2_" d="M418.891,192.547c11.838,11.915,11.838,31.187,0,43.095c-11.916,11.838-31.179,11.838-43.095,0
			c-11.916,11.838-31.18,11.838-43.017,0c-11.916-11.908-11.916-31.18,0-43.095l43.017-43.017L418.891,192.547z M407.538,224.288
			c5.685-5.599,5.685-14.789,0-20.388l-31.741-31.819L344.056,203.9c-5.599,5.599-5.599,14.789,0,20.388
			c5.435,5.442,14.945,5.521,20.466,0c3.115-3.115,7.199-4.639,11.275-4.639s8.238,1.523,11.354,4.639
			C392.593,229.808,402.103,229.73,407.538,224.288z"/>
	</g>
</g>
<path style="fill:#656D78;" d="M407.538,203.9c5.685,5.599,5.685,14.789,0,20.388c-5.435,5.442-14.945,5.521-20.388,0
	c-3.115-3.115-7.277-4.639-11.354-4.639s-8.16,1.523-11.275,4.639c-5.521,5.521-15.031,5.442-20.466,0
	c-5.599-5.599-5.599-14.789,0-20.388l31.741-31.819L407.538,203.9z"/>
<g style="opacity:0.2;">
	<path style="fill:#FFFFFF;" d="M352.051,224.288c-6.238-5.919-8.573-11.744,0-20.388l27.744-27.813l-3.998-4.006L344.056,203.9
		c-5.599,5.599-5.599,14.789,0,20.388c3.701,3.709,9.292,4.864,14.234,3.514C355.971,227.161,353.84,225.99,352.051,224.288z"/>
</g>
<g style="opacity:0.2;">
	<path style="opacity:0.2;enable-background:new    ;" d="M399.612,224.288c6.239-5.919,8.566-11.744,0-20.388l-23.792-23.848
		l3.998-4.005l27.79,27.853c5.599,5.599,5.599,14.789,0,20.388c-3.709,3.709-9.3,4.864-14.235,3.514
		C395.684,227.161,397.824,225.99,399.612,224.288z"/>
</g>
<path style="fill:#656D78;" d="M289.123,97.877c3.678,3.678,3.678,9.597,0,13.274c-3.678,3.592-9.597,3.592-13.274,0
	c-3.678,3.592-9.597,3.592-13.274,0c-3.596-3.678-3.596-9.597,0-13.274l13.274-13.274L289.123,97.877z"/>
<g>
	<path style="fill:#ED5565;" d="M205.487,120.904c4.474,2.562,5.997,8.316,3.436,12.79l-9.354,16.233l-16.23-9.354
		c-4.478-2.639-6.079-8.394-3.439-12.876c2.558-4.474,8.316-5.996,12.794-3.357C195.25,119.865,201.009,118.264,205.487,120.904z"/>
	<polygon style="fill:#ED5565;" points="146.717,187.83 142.879,213.098 119.051,203.822 122.889,178.475 	"/>
</g>
<g>
	<path style="fill:#656D78;" d="M104.816,251.313c3.12,3.123,3.12,8.159,0,11.274c-3.197,3.12-8.234,3.12-11.354,0
		c-3.119-3.115-3.119-8.151,0-11.274C96.582,248.197,101.619,248.197,104.816,251.313z"/>
	<path style="fill:#656D78;" d="M87.868,268.268c3.116,3.124,3.038,8.152-0.082,11.275c-3.119,3.108-8.156,3.108-11.275,0
		c-3.115-3.123-3.115-8.151,0-11.275C79.63,265.145,84.667,265.145,87.868,268.268z"/>
</g>
<g style="opacity:0.2;">
	<path style="fill:#FFFFFF;" d="M340.775,235.696c-11.915-11.908-11.915-31.18,0-43.095l39.027-39.026l-4.006-3.99l-43.017,43.017
		c-11.916,11.915-11.916,31.187,0,43.095c6.934,6.934,16.413,9.69,25.479,8.495C351.863,243.348,345.68,240.599,340.775,235.696z"/>
</g>
<g style="opacity:0.2;">
	<path d="M410.841,235.696c11.916-11.908,11.916-31.18,0-43.095l-35.028-35.029l4.021-3.974l39.003,39.003
		c11.915,11.915,11.915,31.187,0,43.095c-6.934,6.934-16.413,9.69-25.479,8.495C399.761,243.348,405.945,240.599,410.841,235.696z"
		/>
</g>
<g>
	<path style="fill:#3A3847;" d="M491.744,416.441H259.865c-11.022,0-19.99-8.964-19.99-19.989V28.639
		c0-11.025,8.968-19.989,19.99-19.989h231.879c11.025,0,19.99,8.964,19.99,19.989v367.813
		C511.734,407.477,502.769,416.441,491.744,416.441z M259.865,16.645c-6.614,0-11.994,5.381-11.994,11.994v367.813
		c0,6.606,5.38,11.994,11.994,11.994h231.879c6.614,0,11.994-5.388,11.994-11.994V28.639c0-6.613-5.38-11.994-11.994-11.994H259.865
		z"/>
	<path style="fill:#3A3847;" d="M267.86,72.617c-2.21,0-3.997-1.788-3.997-3.998V44.632c0-2.21,1.787-3.998,3.997-3.998
		s3.998,1.788,3.998,3.998v23.987C271.858,70.829,270.07,72.617,267.86,72.617z"/>
	<path style="fill:#3A3847;" d="M283.852,72.617c-2.21,0-3.998-1.788-3.998-3.998V44.632c0-2.21,1.788-3.998,3.998-3.998
		s3.998,1.788,3.998,3.998v23.987C287.85,70.829,286.062,72.617,283.852,72.617z"/>
	<path style="fill:#3A3847;" d="M281.197,64.621h-10.666c-2.21,0-3.998-1.788-3.998-3.998s1.788-3.998,3.998-3.998h10.666
		c2.21,0,3.998,1.788,3.998,3.998S283.407,64.621,281.197,64.621z"/>
	<path style="fill:#3A3847;" d="M267.86,48.629c-1.022,0-2.046-0.39-2.826-1.171c-1.562-1.562-1.562-4.092,0-5.653l7.995-7.996
		c1.563-1.562,4.092-1.562,5.654,0c1.562,1.562,1.562,4.092,0,5.653l-7.996,7.996C269.906,48.239,268.884,48.629,267.86,48.629z"/>
	<path style="fill:#3A3847;" d="M283.852,48.629c-1.023,0-2.046-0.39-2.827-1.171l-7.996-7.996c-1.561-1.562-1.561-4.092,0-5.653
		c1.563-1.562,4.092-1.562,5.654,0l7.995,7.996c1.562,1.562,1.562,4.092,0,5.653C285.898,48.239,284.875,48.629,283.852,48.629z"/>
	<path style="fill:#3A3847;" d="M282.486,117.851c-2.358,0-4.631-0.609-6.63-1.75c-5.013,2.858-11.884,2.022-16.069-2.162
		c-5.201-5.225-5.201-13.704-0.004-18.912l13.246-13.243c1.563-1.562,4.092-1.562,5.654,0l13.258,13.243
		c5.201,5.216,5.201,13.695,0.008,18.904C289.412,116.461,286.055,117.851,282.486,117.851z M275.856,107.114
		c1.015,0,2.046,0.391,2.827,1.164c2.029,2.03,5.574,2.03,7.605,0c2.084-2.085,2.084-5.505-0.008-7.605l-10.425-10.409
		l-10.417,10.417c-2.088,2.093-2.088,5.513,0.008,7.613c2.008,2.015,5.561,2.022,7.582-0.008
		C273.81,107.505,274.834,107.114,275.856,107.114z"/>
	<path style="fill:#3A3847;" d="M283.852,128.588H267.86c-2.21,0-3.997-1.788-3.997-3.998s1.787-3.998,3.997-3.998h15.992
		c2.21,0,3.998,1.788,3.998,3.998S286.062,128.588,283.852,128.588z"/>
	<path style="fill:#3A3847;" d="M275.856,128.588c-2.21,0-3.998-1.788-3.998-3.998v-3.998c0-2.21,1.788-3.998,3.998-3.998
		s3.998,1.788,3.998,3.998v3.998C279.854,126.8,278.066,128.588,275.856,128.588z"/>
	<path style="fill:#3A3847;" d="M467.757,336.483c-2.21,0-3.998-1.796-3.998-3.998v-23.987c0-2.218,1.788-3.998,3.998-3.998
		s3.998,1.78,3.998,3.998v23.987C471.755,334.687,469.967,336.483,467.757,336.483z"/>
	<path style="fill:#3A3847;" d="M483.748,336.483c-2.209,0-3.998-1.796-3.998-3.998v-23.987c0-2.218,1.789-3.998,3.998-3.998
		c2.21,0,3.998,1.78,3.998,3.998v23.987C487.746,334.687,485.958,336.483,483.748,336.483z"/>
	<path style="fill:#3A3847;" d="M481.086,328.487h-10.658c-2.21,0-3.998-1.796-3.998-3.997c0-2.219,1.788-3.998,3.998-3.998h10.658
		c2.21,0,3.998,1.779,3.998,3.998C485.084,326.691,483.296,328.487,481.086,328.487z"/>
	<path style="fill:#3A3847;" d="M467.757,312.496c-1.022,0-2.046-0.391-2.827-1.172c-1.562-1.562-1.562-4.092,0-5.652l7.996-7.996
		c1.562-1.563,4.092-1.563,5.653,0c1.562,1.562,1.562,4.092,0,5.653l-7.995,7.995C469.803,312.105,468.779,312.496,467.757,312.496z
		"/>
	<path style="fill:#3A3847;" d="M483.748,312.496c-1.022,0-2.045-0.391-2.826-1.172l-7.996-7.995c-1.562-1.562-1.562-4.092,0-5.653
		c1.562-1.563,4.092-1.563,5.653,0l7.996,7.996c1.562,1.561,1.562,4.091,0,5.652C485.794,312.105,484.771,312.496,483.748,312.496z"
		/>
	<path style="fill:#3A3847;" d="M482.374,381.71c-2.358,0-4.622-0.609-6.621-1.749c-5.006,2.873-11.869,2.03-16.07-2.155
		c-5.216-5.231-5.216-13.712-0.008-18.912l13.251-13.243c1.562-1.562,4.092-1.562,5.653,0l13.251,13.243
		c5.192,5.216,5.192,13.696,0.008,18.896C489.301,380.32,485.95,381.71,482.374,381.71z M475.753,370.981
		c1.022,0,2.046,0.39,2.826,1.171c2.03,2.015,5.56,2.015,7.605,0c2.077-2.093,2.077-5.513-0.016-7.621l-10.416-10.4l-10.425,10.416
		c-2.093,2.093-2.085,5.497,0.008,7.605c2.015,1.999,5.56,2.015,7.59,0C473.707,371.371,474.729,370.981,475.753,370.981z"/>
	<path style="fill:#3A3847;" d="M483.748,392.454h-15.991c-2.21,0-3.998-1.796-3.998-3.997c0-2.219,1.788-3.998,3.998-3.998h15.991
		c2.21,0,3.998,1.779,3.998,3.998C487.746,390.658,485.958,392.454,483.748,392.454z"/>
	<path style="fill:#3A3847;" d="M475.753,392.454c-2.21,0-3.998-1.796-3.998-3.997v-3.998c0-2.218,1.788-3.998,3.998-3.998
		s3.997,1.78,3.997,3.998v3.998C479.75,390.658,477.963,392.454,475.753,392.454z"/>
	<path style="fill:#3A3847;" d="M397.34,248.525c-7.918,0-15.43-2.663-21.52-7.551c-6.091,4.888-13.61,7.551-21.536,7.551
		c-9.198,0-17.85-3.584-24.362-10.089c-13.414-13.43-13.414-35.278,0-48.709l43.071-43.056c1.562-1.562,4.092-1.562,5.653,0
		l43.057,43.056c13.422,13.431,13.422,35.279,0,48.709C415.19,244.941,406.539,248.525,397.34,248.525z M375.82,231.612
		c1.022,0,2.046,0.391,2.826,1.171c9.987,9.972,27.408,9.987,37.402,0c10.308-10.314,10.308-27.087,0-37.402l-40.229-40.229
		l-40.245,40.229c-10.291,10.315-10.291,27.088,0,37.402c9.995,9.979,27.424,9.979,37.418,0
		C373.774,232.003,374.797,231.612,375.82,231.612z"/>
	<path style="fill:#3A3847;" d="M397.34,232.393c-4.942,0-9.697-1.913-13.048-5.264c-4.536-4.528-12.423-4.528-16.952,0
		c-3.357,3.343-8.104,5.264-13.048,5.264l0,0c-4.95-0.008-9.706-1.921-13.048-5.264c-7.184-7.191-7.199-18.896-0.016-26.096
		l31.765-31.749c1.562-1.562,4.092-1.562,5.653,0l31.742,31.749c7.191,7.191,7.199,18.896,0.023,26.088
		C407.038,230.472,402.283,232.393,397.34,232.393z M375.82,215.621c5.333,0,10.354,2.076,14.125,5.855
		c3.725,3.717,11.072,3.717,14.813-0.016c4.061-4.067,4.053-10.697-0.023-14.773l-28.914-28.922l-28.938,28.922
		c-4.06,4.076-4.06,10.714,0.016,14.789c1.858,1.851,4.545,2.913,7.395,2.921l0,0c2.835,0,5.536-1.07,7.396-2.929
		C365.466,217.697,370.479,215.621,375.82,215.621z"/>
	<path style="fill:#3A3847;" d="M403.79,272.516h-55.971c-2.21,0-3.998-1.796-3.998-3.998c0-2.218,1.788-3.998,3.998-3.998h55.971
		c2.21,0,3.998,1.78,3.998,3.998C407.788,270.721,406,272.516,403.79,272.516z"/>
	<path style="fill:#3A3847;" d="M375.805,272.516c-2.21,0-3.998-1.796-3.998-3.998v-15.995c0-2.21,1.788-3.998,3.998-3.998
		s3.998,1.788,3.998,3.998v15.995C379.803,270.721,378.014,272.516,375.805,272.516z"/>
	<path style="fill:#3A3847;" d="M257.214,446.988c-3.463,0-6.891-0.905-9.983-2.701c-4.634-2.671-7.945-6.98-9.319-12.119
		l-95.2-355.265c-2.846-10.65,3.494-21.629,14.141-24.487l73.633-19.731c2.136-0.516,4.33,0.695,4.896,2.826
		c0.57,2.14-0.695,4.326-2.827,4.904l-73.634,19.731c-6.387,1.71-10.193,8.301-8.487,14.688l95.2,355.257
		c0.824,3.093,2.812,5.669,5.595,7.277c2.792,1.608,6.013,2.062,9.093,1.203l67.212-18.007c2.139-0.516,4.333,0.703,4.903,2.843
		c0.563,2.124-0.703,4.31-2.827,4.888l-67.219,18.006C260.68,446.754,258.943,446.988,257.214,446.988z"/>
	<path style="fill:#3A3847;" d="M180.09,112.268c-1.765,0-3.381-1.18-3.857-2.96l-8.277-30.89c-0.57-2.14,0.695-4.326,2.827-4.904
		c2.136-0.523,4.33,0.703,4.896,2.827l8.277,30.89c0.57,2.14-0.695,4.326-2.827,4.904
		C180.781,112.221,180.433,112.268,180.09,112.268z"/>
	<path style="fill:#3A3847;" d="M175.951,96.823c-1.765,0-3.377-1.18-3.857-2.96c-0.574-2.132,0.691-4.325,2.823-4.896l7.73-2.077
		c2.131-0.578,4.326,0.695,4.899,2.819c0.574,2.131-0.691,4.325-2.823,4.896l-7.73,2.077
		C176.646,96.776,176.295,96.823,175.951,96.823z"/>
	<path style="fill:#3A3847;" d="M199.529,153.902c-0.695,0-1.386-0.18-1.999-0.538l-16.226-9.37
		c-6.379-3.693-8.57-11.885-4.892-18.265c2.963-5.122,9.312-7.738,14.977-6.238c4.1-4.045,10.955-5.053,16.082-2.077
		c3.096,1.788,5.306,4.669,6.231,8.12c0.926,3.452,0.449,7.052-1.343,10.144l-9.366,16.226c-0.531,0.922-1.406,1.586-2.429,1.866
		C200.223,153.855,199.876,153.902,199.529,153.902z M187.988,127.042c-1.909,0-3.693,1.03-4.654,2.686
		c-1.476,2.562-0.593,5.864,1.972,7.348l12.759,7.371l7.371-12.774c0.722-1.241,0.91-2.686,0.539-4.068
		c-0.371-1.39-1.261-2.553-2.506-3.271c-2.491-1.437-5.903-0.508-7.336,1.976c-1.101,1.905-3.545,2.569-5.462,1.46
		C189.85,127.3,188.925,127.042,187.988,127.042z"/>
	<path style="fill:#3A3847;" d="M183.689,94.746c-0.266,0-0.535-0.023-0.804-0.078c-2.163-0.445-3.557-2.554-3.116-4.717
		l3.576-17.506c0.441-2.163,2.558-3.576,4.717-3.124c2.163,0.445,3.557,2.554,3.115,4.717l-3.576,17.507
		C187.215,93.442,185.548,94.746,183.689,94.746z"/>
	<path style="fill:#3A3847;" d="M195.539,108.13c-1.105,0-2.202-0.453-2.995-1.352l-11.853-13.383
		c-1.464-1.648-1.308-4.178,0.343-5.638c1.652-1.469,4.173-1.32,5.646,0.343l11.853,13.384c1.464,1.647,1.308,4.178-0.343,5.638
		C197.429,107.802,196.483,108.13,195.539,108.13z"/>
	<path style="fill:#3A3847;" d="M264.987,476.535c-6.923,0-13.665-3.576-17.362-9.979L63.728,148.014
		c-2.663-4.599-3.365-9.979-1.983-15.147c1.386-5.178,4.689-9.487,9.3-12.15l64.135-37.02c1.905-1.125,4.35-0.453,5.462,1.46
		c1.105,1.913,0.449,4.357-1.464,5.458l-64.139,37.027c-2.76,1.593-4.736,4.178-5.567,7.293c-0.832,3.101-0.414,6.325,1.179,9.074
		l183.901,318.549c3.303,5.716,10.655,7.684,16.41,4.389l60.609-34.998c1.904-1.108,4.349-0.453,5.457,1.469
		c1.109,1.904,0.453,4.356-1.46,5.449l-60.616,34.998C271.811,475.677,268.376,476.535,264.987,476.535z"/>
	<path style="fill:#3A3847;" d="M107.955,172.658c-1.382,0-2.725-0.718-3.467-1.999l-15.991-27.704
		c-1.105-1.913-0.449-4.356,1.464-5.458c1.901-1.124,4.357-0.453,5.462,1.46l15.992,27.705c1.105,1.913,0.449,4.356-1.464,5.458
		C109.322,172.486,108.635,172.658,107.955,172.658z"/>
	<path style="fill:#3A3847;" d="M91.964,144.954c-1.382,0-2.725-0.718-3.467-1.999c-1.105-1.913-0.449-4.356,1.464-5.458
		l13.853-7.996c1.897-1.124,4.353-0.452,5.462,1.461c1.104,1.913,0.449,4.356-1.464,5.458l-13.852,7.995
		C93.33,144.782,92.643,144.954,91.964,144.954z"/>
	<path style="fill:#3A3847;" d="M121.807,164.663c-1.382,0-2.725-0.719-3.467-1.999l-15.992-27.705
		c-1.105-1.913-0.449-4.356,1.464-5.458c1.897-1.124,4.353-0.452,5.462,1.461l15.991,27.704c1.105,1.913,0.449,4.357-1.464,5.458
		C123.174,164.491,122.487,164.663,121.807,164.663z"/>
	<path style="fill:#3A3847;" d="M107.955,172.658c-1.382,0-2.725-0.718-3.467-1.999c-1.104-1.913-0.449-4.356,1.464-5.458
		l13.852-7.995c1.901-1.117,4.35-0.453,5.462,1.46c1.105,1.913,0.449,4.357-1.464,5.458l-13.852,7.996
		C109.322,172.486,108.635,172.658,107.955,172.658z"/>
	<path style="fill:#3A3847;" d="M128.734,160.665c-0.344,0-0.691-0.047-1.039-0.133l-21.856-5.856
		c-2.131-0.578-3.396-2.765-2.827-4.903c0.57-2.124,2.784-3.343,4.896-2.827l21.856,5.856c2.132,0.578,3.396,2.764,2.826,4.903
		C132.115,159.485,130.498,160.665,128.734,160.665z"/>
	<path style="fill:#3A3847;" d="M142.871,217.128c-0.492,0-0.984-0.094-1.456-0.273l-23.848-9.315
		c-1.741-0.68-2.779-2.476-2.494-4.326l3.865-25.314c0.184-1.203,0.902-2.257,1.952-2.858c1.062-0.609,2.319-0.688,3.456-0.266
		l23.831,9.308c1.741,0.68,2.776,2.476,2.495,4.326l-3.85,25.323c-0.18,1.202-0.898,2.256-1.952,2.857
		C144.257,216.948,143.566,217.128,142.871,217.128z M123.459,201.253l16.21,6.333l2.62-17.218l-16.202-6.325L123.459,201.253z"/>
	<path style="fill:#3A3847;" d="M280.057,503.084c-5.13,0-10.245-1.951-14.134-5.84L5.841,237.164
		c-3.764-3.756-5.837-8.776-5.841-14.125c0-5.357,2.069-10.37,5.833-14.134l52.379-52.379c1.562-1.562,4.092-1.562,5.653,0
		s1.562,4.092,0,5.653l-52.379,52.379c-2.253,2.249-3.49,5.263-3.49,8.473c0,3.217,1.241,6.23,3.498,8.479l260.083,260.08
		c4.67,4.686,12.275,4.67,16.968,0l49.584-49.583c1.562-1.562,4.092-1.562,5.653,0s1.562,4.092,0,5.653l-49.592,49.6
		C290.287,501.148,285.164,503.084,280.057,503.084z"/>
	<path style="fill:#3A3847;" d="M59.555,232.689c-1.022,0-2.046-0.39-2.826-1.171L40.12,214.902c-1.562-1.562-1.562-4.092,0-5.653
		c1.562-1.562,4.092-1.562,5.653,0l16.609,16.616c1.562,1.562,1.562,4.092,0,5.653C61.6,232.3,60.578,232.689,59.555,232.689z"/>
	<path style="fill:#3A3847;" d="M59.555,243.996c-2.209,0-3.998-1.788-3.998-3.997v-11.307c0-2.21,1.789-3.998,3.998-3.998
		c2.21,0,3.998,1.788,3.998,3.998v11.307C63.553,242.208,61.764,243.996,59.555,243.996z"/>
	<path style="fill:#3A3847;" d="M59.555,243.996H48.24c-2.209,0-3.998-1.788-3.998-3.997c0-2.21,1.789-3.998,3.998-3.998h11.314
		c2.21,0,3.998,1.788,3.998,3.998C63.553,242.208,61.764,243.996,59.555,243.996z"/>
	<path style="fill:#3A3847;" d="M36.933,221.383c-1.022,0-2.046-0.39-2.826-1.171c-1.562-1.562-1.562-4.092,0-5.653l11.314-11.314
		c1.562-1.562,4.091-1.562,5.653,0s1.562,4.092,0,5.653L39.76,220.212C38.979,220.993,37.957,221.383,36.933,221.383z"/>
	<path style="fill:#3A3847;" d="M82.164,285.916c-3.201,0-6.211-1.249-8.476-3.514c-2.269-2.28-3.518-5.294-3.518-8.496
		c0.004-3.201,1.253-6.215,3.522-8.464c4.544-4.533,12.431-4.533,16.96,0c4.669,4.669,4.665,12.274,0,16.96
		C88.376,284.667,85.366,285.916,82.164,285.916z M82.176,269.924c-1.073,0-2.081,0.422-2.842,1.172
		c-0.75,0.75-1.168,1.749-1.168,2.811c0,1.078,0.418,2.077,1.176,2.843c1.519,1.515,4.138,1.515,5.657,0
		c1.55-1.562,1.554-4.107,0-5.653C84.249,270.346,83.245,269.924,82.176,269.924z"/>
	<path style="fill:#3A3847;" d="M99.12,268.956c-3.201,0-6.211-1.249-8.472-3.514c-2.269-2.269-3.514-5.282-3.518-8.483
		c0-3.202,1.25-6.216,3.522-8.48c4.521-4.529,12.427-4.529,16.956,0c4.677,4.678,4.677,12.282,0,16.964
		C105.336,267.707,102.322,268.956,99.12,268.956z M99.128,252.961c-1.065,0-2.069,0.413-2.826,1.171
		c-0.758,0.758-1.176,1.757-1.176,2.827c0,1.069,0.422,2.076,1.18,2.834c1.495,1.499,4.134,1.507,5.653-0.008
		c1.554-1.562,1.554-4.092-0.004-5.653C101.197,253.374,100.194,252.961,99.128,252.961z"/>
	<path style="fill:#3A3847;" d="M79.338,266.129c-3.206,0-6.22-1.249-8.48-3.518c-2.26-2.264-3.51-5.278-3.514-8.472
		c0-3.209,1.25-6.216,3.518-8.487c4.557-4.529,12.447-4.529,16.964,0c4.666,4.669,4.67,12.274,0,16.959
		C85.549,264.88,82.535,266.129,79.338,266.129z M79.353,250.141c-1.074,0-2.085,0.414-2.847,1.172
		c-0.75,0.749-1.167,1.757-1.167,2.818c0,1.069,0.417,2.069,1.175,2.827c1.507,1.514,4.135,1.514,5.657,0
		c1.55-1.563,1.554-4.1-0.004-5.653C81.418,250.555,80.419,250.141,79.353,250.141z"/>
	<path style="fill:#3A3847;" d="M96.302,292.054c-1.023,0-2.046-0.391-2.827-1.172c-1.562-1.562-1.562-4.091,0-5.653l16.96-16.96
		c1.562-1.562,4.092-1.562,5.653,0s1.562,4.092,0,5.653l-16.96,16.96C98.347,291.663,97.324,292.054,96.302,292.054z"/>
	<path style="fill:#3A3847;" d="M104.781,283.573c-1.022,0-2.046-0.39-2.826-1.171l-8.48-8.48c-1.562-1.562-1.562-4.092,0-5.653
		s4.092-1.562,5.653,0l8.48,8.48c1.562,1.562,1.562,4.092,0,5.653C106.827,283.183,105.804,283.573,104.781,283.573z"/>
</g>
<g>
</g>
<g>
</g>
<g>
</g>
<g>
</g>
<g>
</g>
<g>
</g>
<g>
</g>
<g>
</g>
<g>
</g>
<g>
</g>
<g>
</g>
<g>
</g>
<g>
</g>
<g>
</g>
<g>
</g>
</svg>
