<svg height="511pt" viewBox="0 0 511 511.99965" width="511pt" xmlns="http://www.w3.org/2000/svg"><path d="m340.328125 82-14.628906-55.46875c-1.386719-7.847656-7.179688-13.792969-14.378907-15.785156l-199.542968 35.183594c-10.878906 1.917968-18.140625 12.289062-16.21875 23.167968l65.980468 374.21875c1.878907 10.648438 11.851563 17.816406 22.476563 16.316406zm0 0" fill="#fd6244"/><path d="m502.25 102v380c0 11.050781-8.953125 20-20 20h-280c-11.050781 0-20-8.949219-20-20v-380c0-11.046875 8.949219-20 20-20h280c11.046875 0 20 8.953125 20 20zm0 0" fill="#fff"/><path d="m502.25 482v-380c0-11.046875-8.953125-20-20-20h-173c-11.050781 0-20 8.953125-20 20v380c0 11.050781 8.949219 20 20 20h173c11.046875 0 20-8.949219 20-20zm0 0" fill="#f0e6de"/><path d="m441.640625 280.550781c0 29.308594-20.3125 54.050781-49.792969 54.050781-10.097656 0-18.359375-3.082031-25.007812-7.621093-1.582032 6.179687-2.421875 12.648437-2.421875 19.320312 0 21.820313 8.972656 41.550781 23.429687 55.699219-10.058594-.039062-80.828125-.03125-91.410156-.03125 14.472656-14.117188 23.441406-33.847656 23.441406-55.667969 0-6.691406-.839844-13.191406-2.417968-19.378906-6.710938 4.558594-15.011719 7.679687-25.179688 7.679687-29.472656 0-49.792969-24.742187-49.792969-54.050781 0-23.082031 13.152344-41.71875 35.371094-62.949219 16.800781-16.050781 38.789063-33.570312 64.210937-55.601562 10.777344 9.339844 20.9375 17.871094 30.347657 25.832031 42.152343 35.597657 69.222656 59.589844 69.222656 92.71875zm0 0" fill="#fff"/><path d="m372.417969 187.832031c-2.304688-1.949219-4.652344-3.933593-7.046875-5.957031-15.660156 13.222656-29.484375 24.816406-40.902344 35.726562-22.21875 21.226563-35.371094 39.867188-35.371094 62.949219 0 20.492188 9.945313 38.738281 25.996094 47.871094.808594-.480469 1.597656-.980469 2.367188-1.503906.261718 1.027343.496093 2.066406.714843 3.113281 6.175781 2.925781 13.140625 4.566406 20.714844 4.566406 10.167969 0 18.46875-3.117187 25.179687-7.679687.558594 2.1875 1.019532 4.417969 1.386719 6.679687.367188-2.238281.828125-4.449218 1.382813-6.617187 6.648437 4.539062 14.910156 7.617187 25.007812 7.617187 7.660156 0 14.691406-1.679687 20.914063-4.664062.214843-.992188.4375-1.976563.6875-2.953125.722656.492187 1.46875.964843 2.230469 1.421875 16.03125-9.136719 25.960937-27.371094 25.960937-47.851563 0-33.128906-27.070313-57.121093-69.222656-92.71875zm0 0" fill="#57555c"/><path d="m365.453125 358.945312c-2.734375 16.742188-10.792969 31.691407-22.402344 43.023438h44.769531c-11.589843-11.351562-19.636718-26.292969-22.367187-43.023438zm0 0" fill="#57555c"/><path d="m382.5 452c-5.519531 0-10 4.480469-10 10s4.480469 10 10 10 10-4.480469 10-10-4.480469-10-10-10zm0 0"/><path d="m302.5 132c5.519531 0 10-4.480469 10-10s-4.480469-10-10-10-10 4.480469-10 10 4.480469 10 10 10zm0 0"/><path d="m412.5 462c0 5.523438 4.476562 10 10 10h40c5.519531 0 10-4.476562 10-10s-4.480469-10-10-10h-40c-5.523438 0-10 4.476562-10 10zm0 0"/><path d="m222.5 132h40c5.519531 0 10-4.476562 10-10s-4.480469-10-10-10h-40c-5.523438 0-10 4.476562-10 10s4.476562 10 10 10zm0 0"/><path d="m66.941406 458.058594c2.835938 16.066406 18.050782 27.070312 34.378906 24.402344l71.179688-7.460938v7c0 16.542969 13.457031 30 30 30h280c16.542969 0 30-13.457031 30-30v-380c0-16.539062-13.457031-30-30-30h-134.21875l-12.566406-47.65625c-3.074219-16.035156-18.464844-26.746094-34.671875-23.878906l-275.75 48.617187c-16.332031 2.882813-27.210938 18.425781-24.332031 34.753907zm425.558594-356.058594v380c0 5.515625-4.488281 10-10 10h-280c-5.515625 0-10-4.484375-10-10 0-13.199219 0-347.265625 0-380 0-5.511719 4.484375-10 10-10h280c5.511719 0 10 4.484375 10 10zm-463.734375-33.21875 275.753906-48.621094c5.449219-.960937 10.625 2.675782 11.582031 8.109375.046876.273438.109376.542969.179688.8125l11.320312 42.917969h-125.101562c-16.542969 0-30 13.460938-30 30v352.894531l-73.582031 7.710938c-.234375.023437-.464844.054687-.695313.097656-5.441406.960937-10.621094-2.671875-11.585937-8.121094l-65.980469-374.21875c-.960938-5.453125 2.675781-10.625 8.109375-11.582031zm0 0"/><path d="m271.203125 210.371094c-19.980469 19.085937-38.464844 40.796875-38.464844 70.179687 0 35.339844 25.207031 64.046875 59.792969 64.046875 6.09375 0 11.925781-.925781 17.453125-2.769531.097656 1.484375.144531 2.976563.144531 4.472656 0 18.429688-7.253906 35.660157-20.421875 48.511719-2.910156 2.839844-3.8125 7.160156-2.277343 10.925781 1.53125 3.769531 5.195312 6.230469 9.261718 6.230469 10.277344 0 81.347656-.007812 91.367188.03125h.039062c4.058594 0 7.714844-2.449219 9.253906-6.207031 1.542969-3.765625.652344-8.09375-2.257812-10.941407-13.171875-12.886718-20.425781-30.128906-20.425781-48.550781 0-1.476562.050781-2.953125.144531-4.421875 5.464844 1.808594 11.242188 2.722656 17.285156 2.722656 34.539063 0 59.792969-28.65625 59.792969-64.050781 0-47.429687-48.777344-79.105469-103.023437-126.105469-3.757813-3.257812-9.339844-3.257812-13.097657 0-25.222656 21.859376-47.433593 39.554688-64.566406 55.925782zm71.117187-35.167969c54.925782 47.082031 89.566407 71.480469 89.566407 105.347656 0 25.113281-17.105469 44.050781-39.789063 44.050781-7.140625 0-13.65625-1.980468-19.371094-5.878906-2.695312-1.839844-6.117187-2.25-9.167968-1.097656-3.050782 1.148438-5.351563 3.71875-6.160156 6.878906-1.8125 7.085938-2.730469 14.421875-2.730469 21.796875 0 16.390625 4.4375 32.160157 12.746093 45.773438-15.800781-.003907-34.574218-.003907-50.035156-.003907 8.3125-13.601562 12.75-29.367187 12.75-45.769531 0-7.402343-.917968-14.753906-2.730468-21.851562-.804688-3.160157-3.101563-5.726563-6.148438-6.878907-3.046875-1.15625-6.464844-.75-9.160156 1.078126-5.894532 4.003906-12.289063 5.953124-19.558594 5.953124-22.683594 0-39.789062-18.9375-39.789062-44.050781-.003907-33.878906 35.132812-58.667969 89.578124-105.347656zm0 0"/></svg>